<mxfile host="Electron" agent="Mozilla/5.0 (Windows NT 10.0; Win64; x64) AppleWebKit/537.36 (KHTML, like Gecko) draw.io/26.0.4 Chrome/128.0.6613.186 Electron/32.2.5 Safari/537.36" version="26.0.4">
  <diagram id="C5RBs43oDa-KdzZeNtuy" name="Page-1">
    <mxGraphModel dx="1434" dy="836" grid="1" gridSize="10" guides="1" tooltips="1" connect="1" arrows="1" fold="1" page="1" pageScale="1" pageWidth="1654" pageHeight="1169" math="0" shadow="0">
      <root>
        <mxCell id="WIyWlLk6GJQsqaUBKTNV-0" />
        <mxCell id="WIyWlLk6GJQsqaUBKTNV-1" parent="WIyWlLk6GJQsqaUBKTNV-0" />
        <mxCell id="zkfFHV4jXpPFQw0GAbJ--0" value="&lt;&lt;abstract&gt;&gt;&#xa;Creature" style="swimlane;fontStyle=3;align=center;verticalAlign=top;childLayout=stackLayout;horizontal=1;startSize=40;horizontalStack=0;resizeParent=1;resizeLast=0;collapsible=1;marginBottom=0;rounded=0;shadow=0;strokeWidth=1;fontSize=13;labelBackgroundColor=none;" parent="WIyWlLk6GJQsqaUBKTNV-1" vertex="1">
          <mxGeometry x="680" y="10" width="420" height="270" as="geometry">
            <mxRectangle x="230" y="140" width="160" height="26" as="alternateBounds" />
          </mxGeometry>
        </mxCell>
        <mxCell id="zkfFHV4jXpPFQw0GAbJ--1" value="- _name : string&#xa;- _hp : int&#xa;- _attack : int&#xa;- _specialAttackCooldown&#xa;- _isDead : boolÂ &#xa;" style="text;align=left;verticalAlign=top;spacingLeft=4;spacingRight=4;overflow=hidden;rotatable=0;points=[[0,0.5],[1,0.5]];portConstraint=eastwest;fontSize=13;labelBackgroundColor=none;rounded=0;" parent="zkfFHV4jXpPFQw0GAbJ--0" vertex="1">
          <mxGeometry y="40" width="420" height="80" as="geometry" />
        </mxCell>
        <mxCell id="zkfFHV4jXpPFQw0GAbJ--4" value="" style="line;html=1;strokeWidth=1;align=left;verticalAlign=middle;spacingTop=-1;spacingLeft=3;spacingRight=3;rotatable=0;labelPosition=right;points=[];portConstraint=eastwest;labelBackgroundColor=none;rounded=0;" parent="zkfFHV4jXpPFQw0GAbJ--0" vertex="1">
          <mxGeometry y="120" width="420" height="30" as="geometry" />
        </mxCell>
        <mxCell id="rAJg-Sh_1BFcT53uqxWr-4" value="&lt;div&gt;+ Creature(string name, int hp, int attack, int specialAttackCooldown)&lt;/div&gt;+ IsDead() : bool&lt;div&gt;+ Attack(Creature* other) : void&lt;/div&gt;&lt;div&gt;&lt;i&gt;+ SpecialAttack(&lt;/i&gt;&lt;span style=&quot;background-color: transparent; color: light-dark(rgb(0, 0, 0), rgb(255, 255, 255));&quot;&gt;Creature* other&lt;/span&gt;&lt;i style=&quot;background-color: transparent; color: light-dark(rgb(0, 0, 0), rgb(255, 255, 255));&quot;&gt;) void&lt;/i&gt;&lt;/div&gt;&lt;div&gt;&lt;i style=&quot;background-color: transparent; color: light-dark(rgb(0, 0, 0), rgb(255, 255, 255));&quot;&gt;-&amp;nbsp;&lt;/i&gt;&lt;span style=&quot;background-color: transparent; color: light-dark(rgb(0, 0, 0), rgb(255, 255, 255));&quot;&gt;TakrDamage(int damage) void&lt;/span&gt;&lt;/div&gt;&lt;div&gt;&lt;span style=&quot;background-color: transparent; color: light-dark(rgb(0, 0, 0), rgb(255, 255, 255));&quot;&gt;- Onturn() void&lt;/span&gt;&lt;/div&gt;&lt;div&gt;&lt;span style=&quot;background-color: transparent; color: light-dark(rgb(0, 0, 0), rgb(255, 255, 255));&quot;&gt;-&amp;nbsp;&lt;/span&gt;&lt;span style=&quot;background-color: transparent;&quot;&gt;Lower Cooldown() void&lt;/span&gt;&lt;/div&gt;" style="text;html=1;align=left;verticalAlign=middle;resizable=0;points=[];autosize=1;strokeColor=none;fillColor=none;fontSize=13;labelBackgroundColor=none;rounded=0;" parent="zkfFHV4jXpPFQw0GAbJ--0" vertex="1">
          <mxGeometry y="150" width="420" height="120" as="geometry" />
        </mxCell>
        <mxCell id="rAJg-Sh_1BFcT53uqxWr-10" value="Player" style="swimlane;fontStyle=1;align=center;verticalAlign=top;childLayout=stackLayout;horizontal=1;startSize=26;horizontalStack=0;resizeParent=1;resizeParentMax=0;resizeLast=0;collapsible=1;marginBottom=0;whiteSpace=wrap;html=1;labelBackgroundColor=none;rounded=0;" parent="WIyWlLk6GJQsqaUBKTNV-1" vertex="1">
          <mxGeometry x="400" y="300" width="220" height="100" as="geometry" />
        </mxCell>
        <mxCell id="rAJg-Sh_1BFcT53uqxWr-11" value="- _mp : int" style="text;strokeColor=none;fillColor=none;align=left;verticalAlign=top;spacingLeft=4;spacingRight=4;overflow=hidden;rotatable=0;points=[[0,0.5],[1,0.5]];portConstraint=eastwest;whiteSpace=wrap;html=1;labelBackgroundColor=none;rounded=0;" parent="rAJg-Sh_1BFcT53uqxWr-10" vertex="1">
          <mxGeometry y="26" width="220" height="26" as="geometry" />
        </mxCell>
        <mxCell id="rAJg-Sh_1BFcT53uqxWr-12" value="" style="line;strokeWidth=1;fillColor=none;align=left;verticalAlign=middle;spacingTop=-1;spacingLeft=3;spacingRight=3;rotatable=0;labelPosition=right;points=[];portConstraint=eastwest;labelBackgroundColor=none;rounded=0;" parent="rAJg-Sh_1BFcT53uqxWr-10" vertex="1">
          <mxGeometry y="52" width="220" height="8" as="geometry" />
        </mxCell>
        <mxCell id="rAJg-Sh_1BFcT53uqxWr-13" value="+ Player(string name, int hp, int atk, int specialAttackCooldown, int mp)" style="text;strokeColor=none;fillColor=none;align=left;verticalAlign=top;spacingLeft=4;spacingRight=4;overflow=hidden;rotatable=0;points=[[0,0.5],[1,0.5]];portConstraint=eastwest;whiteSpace=wrap;html=1;labelBackgroundColor=none;rounded=0;" parent="rAJg-Sh_1BFcT53uqxWr-10" vertex="1">
          <mxGeometry y="60" width="220" height="40" as="geometry" />
        </mxCell>
        <mxCell id="rAJg-Sh_1BFcT53uqxWr-18" value="Knight" style="swimlane;fontStyle=1;align=center;verticalAlign=top;childLayout=stackLayout;horizontal=1;startSize=26;horizontalStack=0;resizeParent=1;resizeParentMax=0;resizeLast=0;collapsible=1;marginBottom=0;whiteSpace=wrap;html=1;labelBackgroundColor=none;rounded=0;" parent="WIyWlLk6GJQsqaUBKTNV-1" vertex="1">
          <mxGeometry x="100" y="440" width="220" height="124" as="geometry" />
        </mxCell>
        <mxCell id="rAJg-Sh_1BFcT53uqxWr-20" value="" style="line;strokeWidth=1;fillColor=none;align=left;verticalAlign=middle;spacingTop=-1;spacingLeft=3;spacingRight=3;rotatable=0;labelPosition=right;points=[];portConstraint=eastwest;labelBackgroundColor=none;rounded=0;" parent="rAJg-Sh_1BFcT53uqxWr-18" vertex="1">
          <mxGeometry y="26" width="220" height="8" as="geometry" />
        </mxCell>
        <mxCell id="rAJg-Sh_1BFcT53uqxWr-21" value="&lt;div&gt;&lt;font&gt;+ Knight(string name, int hp, int atk, int mp)&lt;/font&gt;&lt;/div&gt;&lt;div&gt;&lt;font&gt;&lt;i style=&quot;text-wrap: nowrap;&quot;&gt;+ SpecialAttack(&lt;/i&gt;&lt;span style=&quot;color: light-dark(rgb(0, 0, 0), rgb(255, 255, 255)); text-wrap: nowrap; background-color: transparent;&quot;&gt;Creature* other&lt;/span&gt;&lt;i style=&quot;color: light-dark(rgb(0, 0, 0), rgb(255, 255, 255)); text-wrap: nowrap; background-color: transparent;&quot;&gt;) void&lt;/i&gt;&lt;/font&gt;&lt;br&gt;&lt;/div&gt;" style="text;strokeColor=none;fillColor=none;align=left;verticalAlign=top;spacingLeft=4;spacingRight=4;overflow=hidden;rotatable=0;points=[[0,0.5],[1,0.5]];portConstraint=eastwest;whiteSpace=wrap;html=1;labelBackgroundColor=none;rounded=0;" parent="rAJg-Sh_1BFcT53uqxWr-18" vertex="1">
          <mxGeometry y="34" width="220" height="90" as="geometry" />
        </mxCell>
        <mxCell id="rAJg-Sh_1BFcT53uqxWr-22" value="Archer" style="swimlane;fontStyle=1;align=center;verticalAlign=top;childLayout=stackLayout;horizontal=1;startSize=26;horizontalStack=0;resizeParent=1;resizeParentMax=0;resizeLast=0;collapsible=1;marginBottom=0;whiteSpace=wrap;html=1;labelBackgroundColor=none;rounded=0;" parent="WIyWlLk6GJQsqaUBKTNV-1" vertex="1">
          <mxGeometry x="410" y="440" width="220" height="124" as="geometry" />
        </mxCell>
        <mxCell id="rAJg-Sh_1BFcT53uqxWr-24" value="" style="line;strokeWidth=1;fillColor=none;align=left;verticalAlign=middle;spacingTop=-1;spacingLeft=3;spacingRight=3;rotatable=0;labelPosition=right;points=[];portConstraint=eastwest;labelBackgroundColor=none;rounded=0;" parent="rAJg-Sh_1BFcT53uqxWr-22" vertex="1">
          <mxGeometry y="26" width="220" height="8" as="geometry" />
        </mxCell>
        <mxCell id="rAJg-Sh_1BFcT53uqxWr-25" value="&lt;div&gt;+ Archer(string name, int hp, int atk, int mp)&lt;/div&gt;&lt;div&gt;&lt;i style=&quot;text-wrap: nowrap;&quot;&gt;+ SpecialAttack(&lt;/i&gt;&lt;span style=&quot;color: light-dark(rgb(0, 0, 0), rgb(255, 255, 255)); text-wrap: nowrap; background-color: transparent;&quot;&gt;Creature* other&lt;/span&gt;&lt;i style=&quot;color: light-dark(rgb(0, 0, 0), rgb(255, 255, 255)); text-wrap: nowrap; background-color: transparent;&quot;&gt;) void&lt;/i&gt;&lt;br&gt;&lt;/div&gt;" style="text;strokeColor=none;fillColor=none;align=left;verticalAlign=top;spacingLeft=4;spacingRight=4;overflow=hidden;rotatable=0;points=[[0,0.5],[1,0.5]];portConstraint=eastwest;whiteSpace=wrap;html=1;fontSize=12;labelBackgroundColor=none;rounded=0;" parent="rAJg-Sh_1BFcT53uqxWr-22" vertex="1">
          <mxGeometry y="34" width="220" height="90" as="geometry" />
        </mxCell>
        <mxCell id="rAJg-Sh_1BFcT53uqxWr-26" value="Wizard" style="swimlane;fontStyle=1;align=center;verticalAlign=top;childLayout=stackLayout;horizontal=1;startSize=26;horizontalStack=0;resizeParent=1;resizeParentMax=0;resizeLast=0;collapsible=1;marginBottom=0;whiteSpace=wrap;html=1;labelBackgroundColor=none;rounded=0;" parent="WIyWlLk6GJQsqaUBKTNV-1" vertex="1">
          <mxGeometry x="717" y="440" width="220" height="124" as="geometry" />
        </mxCell>
        <mxCell id="rAJg-Sh_1BFcT53uqxWr-28" value="" style="line;strokeWidth=1;fillColor=none;align=left;verticalAlign=middle;spacingTop=-1;spacingLeft=3;spacingRight=3;rotatable=0;labelPosition=right;points=[];portConstraint=eastwest;labelBackgroundColor=none;rounded=0;" parent="rAJg-Sh_1BFcT53uqxWr-26" vertex="1">
          <mxGeometry y="26" width="220" height="8" as="geometry" />
        </mxCell>
        <mxCell id="rAJg-Sh_1BFcT53uqxWr-29" value="&lt;div&gt;+ Wizard(string name, int hp, int atk, int mp)&lt;/div&gt;&lt;div&gt;&lt;i style=&quot;font-size: 13px; text-wrap: nowrap;&quot;&gt;+ SpecialAttack(&lt;/i&gt;&lt;span style=&quot;color: light-dark(rgb(0, 0, 0), rgb(255, 255, 255)); font-size: 13px; text-wrap: nowrap; background-color: transparent;&quot;&gt;Creature* other&lt;/span&gt;&lt;i style=&quot;color: light-dark(rgb(0, 0, 0), rgb(255, 255, 255)); font-size: 13px; text-wrap: nowrap; background-color: transparent;&quot;&gt;) void&lt;/i&gt;&lt;br&gt;&lt;/div&gt;" style="text;strokeColor=none;fillColor=none;align=left;verticalAlign=top;spacingLeft=4;spacingRight=4;overflow=hidden;rotatable=0;points=[[0,0.5],[1,0.5]];portConstraint=eastwest;whiteSpace=wrap;html=1;labelBackgroundColor=none;rounded=0;" parent="rAJg-Sh_1BFcT53uqxWr-26" vertex="1">
          <mxGeometry y="34" width="220" height="90" as="geometry" />
        </mxCell>
        <mxCell id="rAJg-Sh_1BFcT53uqxWr-30" value="" style="endArrow=block;endSize=16;endFill=0;html=1;rounded=0;exitX=0.541;exitY=-0.03;exitDx=0;exitDy=0;exitPerimeter=0;labelBackgroundColor=none;fontColor=default;" parent="WIyWlLk6GJQsqaUBKTNV-1" source="rAJg-Sh_1BFcT53uqxWr-10" edge="1">
          <mxGeometry width="160" relative="1" as="geometry">
            <mxPoint x="520" y="290" as="sourcePoint" />
            <mxPoint x="680" y="150" as="targetPoint" />
            <Array as="points">
              <mxPoint x="520" y="230" />
              <mxPoint x="520" y="150" />
            </Array>
          </mxGeometry>
        </mxCell>
        <mxCell id="rAJg-Sh_1BFcT53uqxWr-31" value="Extends" style="endArrow=block;endSize=16;endFill=0;html=1;rounded=0;exitX=0.55;exitY=0;exitDx=0;exitDy=0;exitPerimeter=0;entryX=-0.009;entryY=-0.025;entryDx=0;entryDy=0;entryPerimeter=0;labelBackgroundColor=none;fontColor=default;" parent="WIyWlLk6GJQsqaUBKTNV-1" source="rAJg-Sh_1BFcT53uqxWr-18" target="rAJg-Sh_1BFcT53uqxWr-13" edge="1">
          <mxGeometry width="160" relative="1" as="geometry">
            <mxPoint x="700" y="370" as="sourcePoint" />
            <mxPoint x="440" y="420" as="targetPoint" />
            <Array as="points">
              <mxPoint x="220" y="359" />
            </Array>
          </mxGeometry>
        </mxCell>
        <mxCell id="rAJg-Sh_1BFcT53uqxWr-32" value="Extends" style="endArrow=block;endSize=16;endFill=0;html=1;rounded=0;exitX=0.573;exitY=-0.013;exitDx=0;exitDy=0;exitPerimeter=0;entryX=1.014;entryY=0.17;entryDx=0;entryDy=0;entryPerimeter=0;labelBackgroundColor=none;fontColor=default;" parent="WIyWlLk6GJQsqaUBKTNV-1" source="rAJg-Sh_1BFcT53uqxWr-26" target="rAJg-Sh_1BFcT53uqxWr-10" edge="1">
          <mxGeometry x="-0.044" y="-2" width="160" relative="1" as="geometry">
            <mxPoint x="996.02" y="449.99999999999994" as="sourcePoint" />
            <mxPoint x="620" y="311" as="targetPoint" />
            <Array as="points">
              <mxPoint x="843" y="317" />
            </Array>
            <mxPoint as="offset" />
          </mxGeometry>
        </mxCell>
        <mxCell id="rAJg-Sh_1BFcT53uqxWr-33" value="Extends" style="endArrow=block;endSize=16;endFill=0;html=1;rounded=0;entryX=0.541;entryY=1.075;entryDx=0;entryDy=0;entryPerimeter=0;exitX=0.5;exitY=0;exitDx=0;exitDy=0;labelBackgroundColor=none;fontColor=default;" parent="WIyWlLk6GJQsqaUBKTNV-1" source="rAJg-Sh_1BFcT53uqxWr-22" target="rAJg-Sh_1BFcT53uqxWr-13" edge="1">
          <mxGeometry width="160" relative="1" as="geometry">
            <mxPoint x="727" y="440" as="sourcePoint" />
            <mxPoint x="590" y="380" as="targetPoint" />
            <Array as="points" />
          </mxGeometry>
        </mxCell>
        <mxCell id="rAJg-Sh_1BFcT53uqxWr-35" value="Monster" style="swimlane;fontStyle=1;align=center;verticalAlign=top;childLayout=stackLayout;horizontal=1;startSize=26;horizontalStack=0;resizeParent=1;resizeParentMax=0;resizeLast=0;collapsible=1;marginBottom=0;whiteSpace=wrap;html=1;labelBackgroundColor=none;rounded=0;" parent="WIyWlLk6GJQsqaUBKTNV-1" vertex="1">
          <mxGeometry x="1150" y="300" width="220" height="34" as="geometry" />
        </mxCell>
        <mxCell id="rAJg-Sh_1BFcT53uqxWr-37" value="" style="line;strokeWidth=1;fillColor=none;align=left;verticalAlign=middle;spacingTop=-1;spacingLeft=3;spacingRight=3;rotatable=0;labelPosition=right;points=[];portConstraint=eastwest;labelBackgroundColor=none;rounded=0;" parent="rAJg-Sh_1BFcT53uqxWr-35" vertex="1">
          <mxGeometry y="26" width="220" height="8" as="geometry" />
        </mxCell>
        <mxCell id="rAJg-Sh_1BFcT53uqxWr-39" value="Extends" style="endArrow=block;endSize=16;endFill=0;html=1;rounded=0;exitX=0.573;exitY=-0.013;exitDx=0;exitDy=0;exitPerimeter=0;entryX=0.996;entryY=0.633;entryDx=0;entryDy=0;entryPerimeter=0;labelBackgroundColor=none;fontColor=default;" parent="WIyWlLk6GJQsqaUBKTNV-1" target="zkfFHV4jXpPFQw0GAbJ--4" edge="1">
          <mxGeometry x="-0.044" y="-2" width="160" relative="1" as="geometry">
            <mxPoint x="1270" y="300" as="sourcePoint" />
            <mxPoint x="930" y="150" as="targetPoint" />
            <Array as="points">
              <mxPoint x="1270" y="150" />
            </Array>
            <mxPoint as="offset" />
          </mxGeometry>
        </mxCell>
        <mxCell id="C0qI2X5FG_As700d7du9-4" value="Goblin" style="swimlane;fontStyle=1;align=center;verticalAlign=top;childLayout=stackLayout;horizontal=1;startSize=26;horizontalStack=0;resizeParent=1;resizeParentMax=0;resizeLast=0;collapsible=1;marginBottom=0;whiteSpace=wrap;html=1;labelBackgroundColor=none;rounded=0;" parent="WIyWlLk6GJQsqaUBKTNV-1" vertex="1">
          <mxGeometry x="980" y="440" width="220" height="124" as="geometry" />
        </mxCell>
        <mxCell id="C0qI2X5FG_As700d7du9-5" value="" style="line;strokeWidth=1;fillColor=none;align=left;verticalAlign=middle;spacingTop=-1;spacingLeft=3;spacingRight=3;rotatable=0;labelPosition=right;points=[];portConstraint=eastwest;labelBackgroundColor=none;rounded=0;" parent="C0qI2X5FG_As700d7du9-4" vertex="1">
          <mxGeometry y="26" width="220" height="8" as="geometry" />
        </mxCell>
        <mxCell id="C0qI2X5FG_As700d7du9-6" value="&lt;div&gt;&lt;font&gt;+ Goblin(int hp, int atk)&lt;/font&gt;&lt;/div&gt;&lt;div&gt;&lt;font&gt;&lt;i style=&quot;text-wrap: nowrap;&quot;&gt;+ SpecialAttack(&lt;/i&gt;&lt;span style=&quot;color: light-dark(rgb(0, 0, 0), rgb(255, 255, 255)); text-wrap: nowrap; background-color: transparent;&quot;&gt;Creature* other&lt;/span&gt;&lt;i style=&quot;color: light-dark(rgb(0, 0, 0), rgb(255, 255, 255)); text-wrap: nowrap; background-color: transparent;&quot;&gt;) void&lt;/i&gt;&lt;/font&gt;&lt;br&gt;&lt;/div&gt;" style="text;strokeColor=none;fillColor=none;align=left;verticalAlign=top;spacingLeft=4;spacingRight=4;overflow=hidden;rotatable=0;points=[[0,0.5],[1,0.5]];portConstraint=eastwest;whiteSpace=wrap;html=1;labelBackgroundColor=none;rounded=0;" parent="C0qI2X5FG_As700d7du9-4" vertex="1">
          <mxGeometry y="34" width="220" height="90" as="geometry" />
        </mxCell>
        <mxCell id="C0qI2X5FG_As700d7du9-10" value="Extends" style="endArrow=block;endSize=16;endFill=0;html=1;rounded=0;exitX=0.573;exitY=-0.013;exitDx=0;exitDy=0;exitPerimeter=0;labelBackgroundColor=none;fontColor=default;" parent="WIyWlLk6GJQsqaUBKTNV-1" edge="1">
          <mxGeometry x="-0.044" y="-2" width="160" relative="1" as="geometry">
            <mxPoint x="1090" y="440" as="sourcePoint" />
            <mxPoint x="1150" y="319" as="targetPoint" />
            <Array as="points">
              <mxPoint x="1090" y="319" />
            </Array>
            <mxPoint as="offset" />
          </mxGeometry>
        </mxCell>
        <mxCell id="C0qI2X5FG_As700d7du9-11" value="Extends" style="endArrow=block;endSize=16;endFill=0;html=1;rounded=0;exitX=0.573;exitY=-0.013;exitDx=0;exitDy=0;exitPerimeter=0;entryX=1;entryY=1;entryDx=0;entryDy=0;labelBackgroundColor=none;fontColor=default;" parent="WIyWlLk6GJQsqaUBKTNV-1" target="rAJg-Sh_1BFcT53uqxWr-35" edge="1">
          <mxGeometry x="-0.044" y="-2" width="160" relative="1" as="geometry">
            <mxPoint x="1370" y="440" as="sourcePoint" />
            <mxPoint x="1430" y="319" as="targetPoint" />
            <Array as="points">
              <mxPoint x="1370" y="390" />
            </Array>
            <mxPoint as="offset" />
          </mxGeometry>
        </mxCell>
        <mxCell id="C0qI2X5FG_As700d7du9-12" value="Player" style="swimlane;fontStyle=1;align=center;verticalAlign=top;childLayout=stackLayout;horizontal=1;startSize=26;horizontalStack=0;resizeParent=1;resizeParentMax=0;resizeLast=0;collapsible=1;marginBottom=0;whiteSpace=wrap;html=1;labelBackgroundColor=none;rounded=0;" parent="WIyWlLk6GJQsqaUBKTNV-1" vertex="1">
          <mxGeometry x="1240" y="440" width="220" height="120" as="geometry" />
        </mxCell>
        <mxCell id="C0qI2X5FG_As700d7du9-13" value="- _aggro : int" style="text;strokeColor=none;fillColor=none;align=left;verticalAlign=top;spacingLeft=4;spacingRight=4;overflow=hidden;rotatable=0;points=[[0,0.5],[1,0.5]];portConstraint=eastwest;whiteSpace=wrap;html=1;labelBackgroundColor=none;rounded=0;" parent="C0qI2X5FG_As700d7du9-12" vertex="1">
          <mxGeometry y="26" width="220" height="26" as="geometry" />
        </mxCell>
        <mxCell id="C0qI2X5FG_As700d7du9-14" value="" style="line;strokeWidth=1;fillColor=none;align=left;verticalAlign=middle;spacingTop=-1;spacingLeft=3;spacingRight=3;rotatable=0;labelPosition=right;points=[];portConstraint=eastwest;labelBackgroundColor=none;rounded=0;" parent="C0qI2X5FG_As700d7du9-12" vertex="1">
          <mxGeometry y="52" width="220" height="8" as="geometry" />
        </mxCell>
        <mxCell id="C0qI2X5FG_As700d7du9-15" value="&lt;div&gt;&lt;font&gt;+ Goblin(int hp, int atk)&lt;/font&gt;&lt;/div&gt;&lt;div&gt;&lt;font&gt;&lt;i style=&quot;text-wrap: nowrap;&quot;&gt;+ SpecialAttack(&lt;/i&gt;&lt;span style=&quot;color: light-dark(rgb(0, 0, 0), rgb(255, 255, 255)); text-wrap: nowrap; background-color: transparent;&quot;&gt;Creature* other&lt;/span&gt;&lt;i style=&quot;color: light-dark(rgb(0, 0, 0), rgb(255, 255, 255)); text-wrap: nowrap; background-color: transparent;&quot;&gt;) void&lt;/i&gt;&lt;/font&gt;&lt;/div&gt;" style="text;strokeColor=none;fillColor=none;align=left;verticalAlign=top;spacingLeft=4;spacingRight=4;overflow=hidden;rotatable=0;points=[[0,0.5],[1,0.5]];portConstraint=eastwest;whiteSpace=wrap;html=1;labelBackgroundColor=none;rounded=0;" parent="C0qI2X5FG_As700d7du9-12" vertex="1">
          <mxGeometry y="60" width="220" height="60" as="geometry" />
        </mxCell>
        <mxCell id="GPEDqYeOFowhIfeF_z7Z-0" value="CreatureManater" style="swimlane;fontStyle=1;align=center;verticalAlign=top;childLayout=stackLayout;horizontal=1;startSize=50;horizontalStack=0;resizeParent=1;resizeParentMax=0;resizeLast=0;collapsible=1;marginBottom=0;whiteSpace=wrap;html=1;" parent="WIyWlLk6GJQsqaUBKTNV-1" vertex="1">
          <mxGeometry x="300" y="630" width="260" height="204" as="geometry" />
        </mxCell>
        <mxCell id="GPEDqYeOFowhIfeF_z7Z-1" value="- CreatureManager* creatureManager&lt;div&gt;- vector&amp;lt;Creature*&amp;gt; creatures&lt;/div&gt;" style="text;strokeColor=none;fillColor=none;align=left;verticalAlign=top;spacingLeft=4;spacingRight=4;overflow=hidden;rotatable=0;points=[[0,0.5],[1,0.5]];portConstraint=eastwest;whiteSpace=wrap;html=1;" parent="GPEDqYeOFowhIfeF_z7Z-0" vertex="1">
          <mxGeometry y="50" width="260" height="60" as="geometry" />
        </mxCell>
        <mxCell id="GPEDqYeOFowhIfeF_z7Z-2" value="" style="line;strokeWidth=1;fillColor=none;align=left;verticalAlign=middle;spacingTop=-1;spacingLeft=3;spacingRight=3;rotatable=0;labelPosition=right;points=[];portConstraint=eastwest;strokeColor=inherit;" parent="GPEDqYeOFowhIfeF_z7Z-0" vertex="1">
          <mxGeometry y="110" width="260" height="8" as="geometry" />
        </mxCell>
        <mxCell id="GPEDqYeOFowhIfeF_z7Z-3" value="+ CreatureManager&amp;amp; Get()&lt;div&gt;+ AddCreature&lt;/div&gt;" style="text;strokeColor=none;fillColor=none;align=left;verticalAlign=top;spacingLeft=4;spacingRight=4;overflow=hidden;rotatable=0;points=[[0,0.5],[1,0.5]];portConstraint=eastwest;whiteSpace=wrap;html=1;" parent="GPEDqYeOFowhIfeF_z7Z-0" vertex="1">
          <mxGeometry y="118" width="260" height="86" as="geometry" />
        </mxCell>
      </root>
    </mxGraphModel>
  </diagram>
</mxfile>
